{
    "asset" : {
        "generator" : "Khronos glTF Blender I/O v1.1.46",
        "version" : "2.0"
    },
    "scene" : 0,
    "scenes" : [
        {
            "name" : "Scene",
            "nodes" : [
                9
            ]
        }
    ],
    "nodes" : [
        {
            "mesh" : 0,
            "name" : "pCylinder13"
        },
        {
            "mesh" : 1,
            "name" : "pCylinder14",
            "rotation" : [
                0.7071068286895752,
                -0.7071067690849304,
                0,
                5.338507946817117e-08
            ]
        },
        {
            "mesh" : 2,
            "name" : "pCylinder15",
            "rotation" : [
                0.7071068286895752,
                -0.7071067690849304,
                0,
                5.338507946817117e-08
            ]
        },
        {
            "mesh" : 3,
            "name" : "pCylinder16"
        },
        {
            "mesh" : 4,
            "name" : "pSphere24",
            "scale" : [
                1.8661525249481201,
                1.8661525249481201,
                1.8661525249481201
            ]
        },
        {
            "mesh" : 5,
            "name" : "pSphere25",
            "scale" : [
                1.3693885803222656,
                1.3693885803222656,
                1.3693885803222656
            ],
            "translation" : [
                1.809948444366455,
                0,
                1.2791452407836914
            ]
        },
        {
            "mesh" : 6,
            "name" : "pSphere26",
            "rotation" : [
                0.7071068286895752,
                -0.7071067690849304,
                0,
                5.338507946817117e-08
            ],
            "scale" : [
                1.3693885803222656,
                1.3693885803222656,
                1.3693885803222656
            ],
            "translation" : [
                0,
                -1.809948444366455,
                -1.2791452407836914
            ]
        },
        {
            "mesh" : 7,
            "name" : "pSphere27",
            "rotation" : [
                0.7071068286895752,
                -0.7071067690849304,
                0,
                5.338507946817117e-08
            ],
            "scale" : [
                1.3693885803222656,
                1.3693885803222656,
                1.3693885803222656
            ],
            "translation" : [
                0,
                1.809948444366455,
                -1.2791452407836914
            ]
        },
        {
            "mesh" : 8,
            "name" : "pSphere28",
            "scale" : [
                1.3693885803222656,
                1.3693885803222656,
                1.3693885803222656
            ],
            "translation" : [
                -1.809948444366455,
                0,
                1.2791452407836914
            ]
        },
        {
            "children" : [
                0,
                1,
                2,
                3,
                4,
                5,
                6,
                7,
                8
            ],
            "name" : "Methane",
            "rotation" : [
                0.7071068286895752,
                0,
                0,
                0.7071067094802856
            ],
            "scale" : [
                0.009999999776482582,
                0.009999999776482582,
                0.009999999776482582
            ],
            "translation" : [
                0.00010743916209321469,
                9.383033102494664e-06,
                -0.000710389344021678
            ]
        }
    ],
    "materials" : [
        {
            "doubleSided" : true,
            "emissiveFactor" : [
                0,
                0,
                0
            ],
            "name" : "Bar",
            "pbrMetallicRoughness" : {
                "baseColorFactor" : [
                    0.19480518996715546,
                    0.19480518996715546,
                    0.19480518996715546,
                    1
                ],
                "metallicFactor" : 0.5,
                "roughnessFactor" : 0.7487671971321106
            }
        },
        {
            "doubleSided" : true,
            "emissiveFactor" : [
                0,
                0,
                0
            ],
            "name" : "blinn4",
            "pbrMetallicRoughness" : {
                "baseColorFactor" : [
                    0.09090909361839294,
                    0.09090909361839294,
                    0.09090909361839294,
                    1
                ],
                "metallicFactor" : 0.5,
                "roughnessFactor" : 0.7487671971321106
            }
        },
        {
            "doubleSided" : true,
            "emissiveFactor" : [
                0,
                0,
                0
            ],
            "name" : "blinn3",
            "pbrMetallicRoughness" : {
                "baseColorFactor" : [
                    0.8180000185966492,
                    0.8180000185966492,
                    0.8180000185966492,
                    1
                ],
                "metallicFactor" : 0.5,
                "roughnessFactor" : 0.7487671971321106
            }
        }
    ],
    "meshes" : [
        {
            "name" : "Mesh.001",
            "primitives" : [
                {
                    "attributes" : {
                        "POSITION" : 0,
                        "NORMAL" : 1,
                        "TEXCOORD_0" : 2
                    },
                    "indices" : 3,
                    "material" : 0
                }
            ]
        },
        {
            "name" : "Mesh.003",
            "primitives" : [
                {
                    "attributes" : {
                        "POSITION" : 4,
                        "NORMAL" : 5,
                        "TEXCOORD_0" : 6
                    },
                    "indices" : 7,
                    "material" : 0
                }
            ]
        },
        {
            "name" : "Mesh.004",
            "primitives" : [
                {
                    "attributes" : {
                        "POSITION" : 8,
                        "NORMAL" : 9,
                        "TEXCOORD_0" : 10
                    },
                    "indices" : 11,
                    "material" : 0
                }
            ]
        },
        {
            "name" : "Mesh.008",
            "primitives" : [
                {
                    "attributes" : {
                        "POSITION" : 12,
                        "NORMAL" : 13,
                        "TEXCOORD_0" : 14
                    },
                    "indices" : 15,
                    "material" : 0
                }
            ]
        },
        {
            "name" : "Mesh",
            "primitives" : [
                {
                    "attributes" : {
                        "POSITION" : 16,
                        "NORMAL" : 17,
                        "TEXCOORD_0" : 18
                    },
                    "indices" : 19,
                    "material" : 1
                }
            ]
        },
        {
            "name" : "Mesh.002",
            "primitives" : [
                {
                    "attributes" : {
                        "POSITION" : 20,
                        "NORMAL" : 21,
                        "TEXCOORD_0" : 22
                    },
                    "indices" : 23,
                    "material" : 2
                }
            ]
        },
        {
            "name" : "Mesh.005",
            "primitives" : [
                {
                    "attributes" : {
                        "POSITION" : 24,
                        "NORMAL" : 25,
                        "TEXCOORD_0" : 26
                    },
                    "indices" : 23,
                    "material" : 2
                }
            ]
        },
        {
            "name" : "Mesh.006",
            "primitives" : [
                {
                    "attributes" : {
                        "POSITION" : 27,
                        "NORMAL" : 28,
                        "TEXCOORD_0" : 29
                    },
                    "indices" : 30,
                    "material" : 2
                }
            ]
        },
        {
            "name" : "Mesh.007",
            "primitives" : [
                {
                    "attributes" : {
                        "POSITION" : 31,
                        "NORMAL" : 32,
                        "TEXCOORD_0" : 33
                    },
                    "indices" : 30,
                    "material" : 2
                }
            ]
        }
    ],
    "accessors" : [
        {
            "bufferView" : 0,
            "componentType" : 5126,
            "count" : 168,
            "max" : [
                5.493570804595947,
                0.39668506383895874,
                0.4506515562534332
            ],
            "min" : [
                -0.40822434425354004,
                -0.39668506383895874,
                -4.044619083404541
            ],
            "type" : "VEC3"
        },
        {
            "bufferView" : 1,
            "componentType" : 5126,
            "count" : 168,
            "type" : "VEC3"
        },
        {
            "bufferView" : 2,
            "componentType" : 5126,
            "count" : 168,
            "type" : "VEC2"
        },
        {
            "bufferView" : 3,
            "componentType" : 5123,
            "count" : 480,
            "type" : "SCALAR"
        },
        {
            "bufferView" : 4,
            "componentType" : 5126,
            "count" : 168,
            "max" : [
                5.493570804595947,
                0.39668509364128113,
                0.4506515562534332
            ],
            "min" : [
                -0.40822428464889526,
                -0.39668509364128113,
                -4.044619083404541
            ],
            "type" : "VEC3"
        },
        {
            "bufferView" : 5,
            "componentType" : 5126,
            "count" : 168,
            "type" : "VEC3"
        },
        {
            "bufferView" : 6,
            "componentType" : 5126,
            "count" : 168,
            "type" : "VEC2"
        },
        {
            "bufferView" : 7,
            "componentType" : 5123,
            "count" : 480,
            "type" : "SCALAR"
        },
        {
            "bufferView" : 8,
            "componentType" : 5126,
            "count" : 168,
            "max" : [
                0.40822428464889526,
                0.396684855222702,
                0.4506515562534332
            ],
            "min" : [
                -5.493570804595947,
                -0.3966851532459259,
                -4.044619083404541
            ],
            "type" : "VEC3"
        },
        {
            "bufferView" : 9,
            "componentType" : 5126,
            "count" : 168,
            "type" : "VEC3"
        },
        {
            "bufferView" : 10,
            "componentType" : 5126,
            "count" : 168,
            "type" : "VEC2"
        },
        {
            "bufferView" : 11,
            "componentType" : 5123,
            "count" : 480,
            "type" : "SCALAR"
        },
        {
            "bufferView" : 12,
            "componentType" : 5126,
            "count" : 168,
            "max" : [
                0.40822434425354004,
                0.396684855222702,
                0.4506515860557556
            ],
            "min" : [
                -5.493570804595947,
                -0.3966851830482483,
                -4.044619083404541
            ],
            "type" : "VEC3"
        },
        {
            "bufferView" : 13,
            "componentType" : 5126,
            "count" : 168,
            "type" : "VEC3"
        },
        {
            "bufferView" : 14,
            "componentType" : 5126,
            "count" : 168,
            "type" : "VEC2"
        },
        {
            "bufferView" : 15,
            "componentType" : 5123,
            "count" : 480,
            "type" : "SCALAR"
        },
        {
            "bufferView" : 16,
            "componentType" : 5126,
            "count" : 439,
            "max" : [
                1,
                1.0000001192092896,
                1
            ],
            "min" : [
                -1.000000238418579,
                -1.0000004768371582,
                -1
            ],
            "type" : "VEC3"
        },
        {
            "bufferView" : 17,
            "componentType" : 5126,
            "count" : 439,
            "type" : "VEC3"
        },
        {
            "bufferView" : 18,
            "componentType" : 5126,
            "count" : 439,
            "type" : "VEC2"
        },
        {
            "bufferView" : 19,
            "componentType" : 5123,
            "count" : 2280,
            "type" : "SCALAR"
        },
        {
            "bufferView" : 20,
            "componentType" : 5126,
            "count" : 439,
            "max" : [
                -3.899935007095337,
                1.0000001192092896,
                -2.4629569053649902
            ],
            "min" : [
                -5.899763584136963,
                -1.0000004768371582,
                -4.462785720825195
            ],
            "type" : "VEC3"
        },
        {
            "bufferView" : 21,
            "componentType" : 5126,
            "count" : 439,
            "type" : "VEC3"
        },
        {
            "bufferView" : 22,
            "componentType" : 5126,
            "count" : 439,
            "type" : "VEC2"
        },
        {
            "bufferView" : 23,
            "componentType" : 5123,
            "count" : 2280,
            "type" : "SCALAR"
        },
        {
            "bufferView" : 24,
            "componentType" : 5126,
            "count" : 439,
            "max" : [
                -3.899935007095337,
                1.0000001192092896,
                -2.4629569053649902
            ],
            "min" : [
                -5.899763584136963,
                -1.0000004768371582,
                -4.462785720825195
            ],
            "type" : "VEC3"
        },
        {
            "bufferView" : 25,
            "componentType" : 5126,
            "count" : 439,
            "type" : "VEC3"
        },
        {
            "bufferView" : 26,
            "componentType" : 5126,
            "count" : 439,
            "type" : "VEC2"
        },
        {
            "bufferView" : 27,
            "componentType" : 5126,
            "count" : 439,
            "max" : [
                5.899763584136963,
                1.0000001192092896,
                -2.4629569053649902
            ],
            "min" : [
                3.899935007095337,
                -1.0000004768371582,
                -4.462785243988037
            ],
            "type" : "VEC3"
        },
        {
            "bufferView" : 28,
            "componentType" : 5126,
            "count" : 439,
            "type" : "VEC3"
        },
        {
            "bufferView" : 29,
            "componentType" : 5126,
            "count" : 439,
            "type" : "VEC2"
        },
        {
            "bufferView" : 30,
            "componentType" : 5123,
            "count" : 2280,
            "type" : "SCALAR"
        },
        {
            "bufferView" : 31,
            "componentType" : 5126,
            "count" : 439,
            "max" : [
                5.899763584136963,
                1.0000001192092896,
                -2.4629569053649902
            ],
            "min" : [
                3.899935007095337,
                -1.0000004768371582,
                -4.462785243988037
            ],
            "type" : "VEC3"
        },
        {
            "bufferView" : 32,
            "componentType" : 5126,
            "count" : 439,
            "type" : "VEC3"
        },
        {
            "bufferView" : 33,
            "componentType" : 5126,
            "count" : 439,
            "type" : "VEC2"
        }
    ],
    "bufferViews" : [
        {
            "buffer" : 0,
            "byteLength" : 2016,
            "byteOffset" : 0
        },
        {
            "buffer" : 0,
            "byteLength" : 2016,
            "byteOffset" : 2016
        },
        {
            "buffer" : 0,
            "byteLength" : 1344,
            "byteOffset" : 4032
        },
        {
            "buffer" : 0,
            "byteLength" : 960,
            "byteOffset" : 5376
        },
        {
            "buffer" : 0,
            "byteLength" : 2016,
            "byteOffset" : 6336
        },
        {
            "buffer" : 0,
            "byteLength" : 2016,
            "byteOffset" : 8352
        },
        {
            "buffer" : 0,
            "byteLength" : 1344,
            "byteOffset" : 10368
        },
        {
            "buffer" : 0,
            "byteLength" : 960,
            "byteOffset" : 11712
        },
        {
            "buffer" : 0,
            "byteLength" : 2016,
            "byteOffset" : 12672
        },
        {
            "buffer" : 0,
            "byteLength" : 2016,
            "byteOffset" : 14688
        },
        {
            "buffer" : 0,
            "byteLength" : 1344,
            "byteOffset" : 16704
        },
        {
            "buffer" : 0,
            "byteLength" : 960,
            "byteOffset" : 18048
        },
        {
            "buffer" : 0,
            "byteLength" : 2016,
            "byteOffset" : 19008
        },
        {
            "buffer" : 0,
            "byteLength" : 2016,
            "byteOffset" : 21024
        },
        {
            "buffer" : 0,
            "byteLength" : 1344,
            "byteOffset" : 23040
        },
        {
            "buffer" : 0,
            "byteLength" : 960,
            "byteOffset" : 24384
        },
        {
            "buffer" : 0,
            "byteLength" : 5268,
            "byteOffset" : 25344
        },
        {
            "buffer" : 0,
            "byteLength" : 5268,
            "byteOffset" : 30612
        },
        {
            "buffer" : 0,
            "byteLength" : 3512,
            "byteOffset" : 35880
        },
        {
            "buffer" : 0,
            "byteLength" : 4560,
            "byteOffset" : 39392
        },
        {
            "buffer" : 0,
            "byteLength" : 5268,
            "byteOffset" : 43952
        },
        {
            "buffer" : 0,
            "byteLength" : 5268,
            "byteOffset" : 49220
        },
        {
            "buffer" : 0,
            "byteLength" : 3512,
            "byteOffset" : 54488
        },
        {
            "buffer" : 0,
            "byteLength" : 4560,
            "byteOffset" : 58000
        },
        {
            "buffer" : 0,
            "byteLength" : 5268,
            "byteOffset" : 62560
        },
        {
            "buffer" : 0,
            "byteLength" : 5268,
            "byteOffset" : 67828
        },
        {
            "buffer" : 0,
            "byteLength" : 3512,
            "byteOffset" : 73096
        },
        {
            "buffer" : 0,
            "byteLength" : 5268,
            "byteOffset" : 76608
        },
        {
            "buffer" : 0,
            "byteLength" : 5268,
            "byteOffset" : 81876
        },
        {
            "buffer" : 0,
            "byteLength" : 3512,
            "byteOffset" : 87144
        },
        {
            "buffer" : 0,
            "byteLength" : 4560,
            "byteOffset" : 90656
        },
        {
            "buffer" : 0,
            "byteLength" : 5268,
            "byteOffset" : 95216
        },
        {
            "buffer" : 0,
            "byteLength" : 5268,
            "byteOffset" : 100484
        },
        {
            "buffer" : 0,
            "byteLength" : 3512,
            "byteOffset" : 105752
        }
    ],
    "buffers" : [
        {
            "byteLength" : 109264,
            "uri" : "data:application/octet-stream;base64,"
        }
    ]
}
